<?xml version="1.0" encoding="UTF-8"?>
<svg id="Layer_2" data-name="Layer 2" xmlns="http://www.w3.org/2000/svg" xmlns:xlink="http://www.w3.org/1999/xlink" viewBox="0 0 933.95 387.12">
  <defs>
    <style>
      .cls-1 {
        fill: url(#linear-gradient-2);
      }

      .cls-2 {
        fill: url(#linear-gradient);
      }
    </style>
    <linearGradient id="linear-gradient" x1="225.73" y1="288.85" x2="708.22" y2="288.85" gradientUnits="userSpaceOnUse">
      <stop offset="0" stop-color="#62812d"/>
      <stop offset=".59" stop-color="#395422"/>
    </linearGradient>
    <linearGradient id="linear-gradient-2" x1="0" y1="98.2" x2="933.95" y2="98.2" xlink:href="#linear-gradient"/>
  </defs>
  <g id="Layer_1-2" data-name="Layer 1">
    <g>
      <path class="cls-2" d="M706.47,323.88c-11.91,23.57-25.98,45.09-50.42,57.89-16.84,8.82-38.79,7-50.87-7.45-6.25-7.45-7.9-18.33-9.67-28.35-1.52-8.62-2.72-17.39-5.31-25.68-3.66-11.76-10.34-21.05-24.26-22-9.12-.62-12.38,2.19-12.33,11.26,.07,14.92,.37,29.87,.27,44.79-.05,9.24-3.69,13.23-11.98,14.2-8.32,.97-13.53-2.62-13.83-10.96-.67-18.98-.92-37.96-.77-56.95,.02-3.84-.72-5.83-4.23-5.75-16.19,.4-32.43,.6-48.58,1.87-4.58,.37-3.14,6.45-3.04,9.67,.45,12.58-3.11,24.11-8.15,35.25-8.52,18.86-34.43,30.91-55.75,22.74-15.69-6-28.17-14.62-33.85-31.01-1.44-4.11-3.39-4.41-6.23-1.72-4.26,3.96-8.74,7.77-12.48,12.21-16.99,20.28-53.98,24.01-75.95,10.29-8.25-5.16-16.14-11.33-25.63-15.59-2.22,9.72-1.22,19.06-1.87,28.25-.62,8.74-4.61,12.9-12.18,12.88-7.32-.02-12.11-4.58-13.03-12.51-1.15-9.62-.45-19.11,.27-28.77,1.07-13.98-.47-28.12-.17-42.2,.32-16.19,.97-32.41,2.39-48.53,1.35-15.22,2.39-30.42,1.54-45.61-.52-9.29,4.56-10.96,11.56-11.46,8.15-.57,13.43,3.34,13.83,11.23,.45,9.32,.12,18.71-.27,28.05-.5,11.71-1.44,23.39-2.14,35.1-.15,2.29-.87,5.26,1.2,6.6,2.27,1.47,5.31-.02,7.12-1.44,8.37-6.68,18.46-10.61,26.65-17.66,6.33-5.41,16.44-3.26,20.68,3.09,4.28,6.38,1.59,13.83-6.53,19.06-14.75,9.52-29.37,19.21-44.04,28.85-1.2,.8-2.17,1.89-3.59,3.14,14.15,12.51,29.77,22.22,47.03,28.8,11.16,4.26,21.9,1.37,31.39-5.93,13.68-10.54,23.77-24.16,32.61-38.71,3.61-5.93,1.57-13.15,1.92-19.8,.35-6.5,3.31-11.19,9.64-13.18,6.05-1.89,10.56,1.4,13.48,5.85,3.39,5.18,2.32,11.43,1.97,17.44-.85,14.27-.05,28.37,4.81,42.05,3.64,10.19,11.63,15.17,21.22,17.71,9.74,2.57,18.86-2.64,22.74-12.01s4.83-19.23,5.36-29.22c.2-4.23-1.89-6.28-5.56-7.67-10.34-3.94-14.17-9.94-13.75-21,.25-6.8,6.93-14.57,14.22-16.54,7.77-2.12,16.54,1.2,21.5,9.84,3.49,6.05,7.8,8.12,14.1,7.27,19.98-2.74,40.36-.12,60.21-4.66,2.89-.65,6.98-.75,8.35,1.4,4.53,7.05,10.96,4.76,17.09,4.68,26.8-.37,46.68,16.96,53.41,46.43,1.92,8.37,3.41,16.79,4.61,25.31,2.27,15.92,9.89,20,24.51,13.43,15.2-6.85,23.42-20.7,32.11-33.85,2.59-3.89,4.53-8.2,7.02-12.13,4.11-6.55,10.29-8.05,16.72-4.53,6.33,3.46,8.57,9.07,4.93,16.27Z"/>
      <path class="cls-1" d="M929.56,125.71c-5.75-5.7-12.63-5.51-19.16,1.4-8.44,8.92-16.07,18.61-24.61,27.43-16.09,16.62-32.43,13.03-40.03-8.87-2.64-7.65-3.61-15.89-5.33-23.89-3.66-17.06-13.23-25.86-30.49-29.27-25.26-5.01-42.5,10.69-59.91,24.01-9.79,7.52-14.35,20.45-21.55,30.72-5.58,7.9-11.04,15.97-19.01,21.7-4.36,3.16-7.65,2.72-8.37-3.49-.2-2.02-.47-4.06-.65-6.08-1.27-16.91-2.14-33.88-7.55-50.15-6.75-20.43-21.42-30.27-42.05-27.68-5.08,.62-10.04,2.57-15.79,4.14,1.47-19.78,1.72-38.84,4.61-57.69,1.15-7.35-1.77-12.7-9.12-14.82-7.12-2.07-12.58,1.27-15.27,9.32-1.1,3.29-1.82,6.8-2.04,10.26-1.52,20.75-2.94,41.5-4.04,62.25-.27,4.63-1.79,7.57-5.73,9.89-11.21,6.58-20.58,15.3-28.95,25.28-7.52,8.99-16.14,16.94-25.73,23.77-8.2,5.83-16.94,6.23-25.66,1.57-12.78-6.88-18.63-24.19-12.85-37.29,7.07-16.07,21.25-23.09,36.69-18.11,7,2.27,12.23-.37,15.67-6.25,4.23-7.3-.85-16.91-10.69-19.36-18.58-4.58-35.32-.47-49.7,12.41-2.37,2.14-4.36,6.25-6.85,6.55-11.81,1.35-15.74,11.01-21.62,18.81-11.68,15.39-23.39,30.77-40.51,40.85-24.59,14.45-42.82,6.2-46.21-21.42-1.84-15.17-.05-30.42-.17-45.64-.02-4.16,1.99-4.73,5.53-4.19,5.51,.87,11.01,1.82,16.57,1.94,7.35,.15,12.48-3.41,13.28-11.14,.72-7.27-3.31-11.61-10.11-13.18-4.56-1.05-9.24-1.67-13.9-1.92-7.82-.37-11.93-2.44-10.94-11.93,1.1-10.69,.17-21.65-.6-32.41-.62-8.47-6.65-13.73-13.55-13.2-7.4,.57-11.58,6-11.38,14.8,.1,7.02,.22,14.05,.42,21.07q.47,16.37-15.37,16.59c-1.2,.02-2.39,.07-3.51,.27-5.75,1.1-9.62,4.31-10.56,10.24-.92,5.9,1.64,9.99,6.88,12.93,3.81,2.14,8,2.69,11.91,2.29,9.74-.97,10.59,3.96,10.19,11.96-.35,8.15-.8,16.32-.82,24.46-4.19,3.94-8,8.32-11.71,12.7-5.31,6.25-10.01,13.2-16.81,17.81-11.86,8.1-20.75,12.21-31.96-4.04-4.61-6.7-5.6-13.83-7.55-21.05-2.42-9.17-1.89-19.31-8.77-27.08-18.86-21.32-59.64-19.13-75.53,11.01-4.76,9.02-9.04,18.31-14.12,27.13-5.65,9.86-11.28,19.93-20.45,27.15-7.15,5.58-15.22,10.06-24.26,5.95-8.64-3.91-9.04-12.93-9.81-21.12-1.35-14.25-2.49-28.52-7.2-42.22-10.21-29.39-37.24-38.59-62.38-20.83-3.06,2.17-4.83,1.87-7.62,.05-10.84-7.1-22.44-7.95-34.3-3.09-2.77,1.12-4.41,1.54-6.9-.72-5.18-4.76-12.38-4.19-17.19-1.27-3.09,1.87-4.83,9.04-4.21,13.43,3.19,23.09,2.91,46.38,4.98,69.5,.82,9.17,5.58,14.97,12.83,14.85,7.85-.17,11.93-4.81,12.21-15.02,.3-12.28,0-24.59-.05-35.52,.9-5.13,1.25-8.97,2.29-12.6,1.4-4.76,2.94-9.72,9.37-9.96,6.63-.25,10.34,3.01,12.01,9.22,1.79,6.5,3.11,12.95,2.86,19.83-.25,7.87,.3,15.77,.77,23.64,.45,7.5,4.66,11.96,12.13,12.58,7.05,.6,12.03-4.43,12.8-12.6,.3-2.89-.15-5.83-.15-8.74-.02-12.26-1.25-24.59,1.4-36.72,1.15-5.26,3.16-10.31,9.69-10.96,6.05-.6,9.96,2.91,12.8,7.62,1.64,2.69,2.72,5.83,3.64,8.87,3.29,11.01,4.06,22.39,4.91,33.78,1.42,18.31,7.9,34.25,25.68,41.78,17.51,7.37,33.8,1.94,48.48-9.14,6.75-5.13,12.41-11.23,16.94-18.41,2.09-3.29,3.66-4.58,6.95-.6,17.21,20.78,46.04,15.62,60.38,.77,4.81-4.91,6.5-3.74,10.31,.6,17.79,19.98,41.35,21.9,62.6,5.75,7.1-5.38,13.08-11.81,18.76-18.48,.07,.32,.17,.67,.27,1,5.93,20.73,19.56,33.31,39.06,34.98,19.65,1.69,36.74-4.86,52.41-16.32,10.16-7.47,18.31-16.96,27-26.8,1.2,3.24,2.02,5.65,2.99,8,14.6,35.22,53.43,45.26,82.21,21.47,9.29-7.67,17.74-16.14,25.78-25.06,3.39-3.74,6.38-8.12,11.33-10.39,1.87,3.21,.97,6.18,.95,9.04-.07,9.64-.72,19.31-.15,28.9,.5,8.77,5.33,12.78,12.73,12.31,7.62-.5,11.68-4.88,11.93-13.38,.22-7.02-.07-14.05,.07-21.07,.22-11.46,.37-22.99,6.93-33.06,4.73-7.25,11.04-12.33,20.23-11.56,9.29,.77,9.52,9.17,11.66,15.52,1.54,4.66,2.32,9.67,2.89,14.6,1.1,10.16,1.59,20.38,2.74,30.54,1.42,12.68,6.2,23.44,19.46,27.68,12.68,4.06,23.47-.3,33.13-8.59,9.84-8.44,16.99-19.11,24.59-29.52,20.2,35.3,46.53,39.36,74.91,11.56,1.2,1.27,2.44,2.52,3.59,3.81,19.58,22.12,42.75,24.21,65.84,6.03,13.25-10.41,22.52-24.51,33.75-36.77,4.66-5.01,3.44-10.84-1.47-15.67Zm-664.92-2.64c-1,9.12-4.51,18.68-15.42,23.59-8.94,4.01-16.99,.45-20.15-8.77-5.23-15.32,3.66-31.11,18.68-33.21,13.85-1.92,18.91,2.94,16.89,18.38Zm550.09,11.43c-1.4,6.78-2.89,15.2-9.91,21.02-5.16,4.26-10.79,6.68-17.71,4.28-6.6-2.27-8.17-7.75-9.29-13.58-2.91-15.3,7.2-29.17,22.15-29.25,13.75-.07,16.96,4.28,14.77,17.51Z"/>
    </g>
  </g>
</svg>