<?xml version="1.0" encoding="UTF-8"?>
<svg id="Layer_2" data-name="Layer 2" xmlns="http://www.w3.org/2000/svg" viewBox="0 0 467.94 230.61">
  <defs>
    <style>
      .cls-1 {
        fill: #014117;
      }
    </style>
  </defs>
  <g id="Layer_1-2" data-name="Layer 1">
    <g>
      <path class="cls-1" d="M17.58,90.09c.58,3.72,.98,6.76,1.56,9.76,.27,1.37,.83,2.7,1.42,3.98,2.76,5.94,7.36,8.07,13.48,5.7,2.95-1.15,5.77-3,8.21-5.05,7.52-6.32,13.2-14.26,18.89-22.18,4.66-6.49,9.2-13.07,14.08-19.39,4.91-6.37,9.91-12.74,17.64-17.23-1.3-.12-1.91-.24-2.51-.21-8.96,.45-17.95,.69-26.87,1.52-3.29,.31-6.61,1.71-9.65,3.16-7.39,3.55-10.2,9.75-8.43,17.75,.38,1.7,.91,3.37,1.36,5.05-2.86,1.48-6.45,.66-9.39-2.15-5.18-4.95-5.94-13.59-1.73-19.7,3.24-4.71,7.86-7.32,13.28-8.64,7.17-1.75,14.46-2.29,21.81-1.87,8.56,.5,17.1,1.14,25.66,1.64,10.1,.59,20.13,0,30.03-2.18,7.95-1.75,14.94-5.51,21.2-10.65,2.49-2.04,5.24-1.35,6.4,1.68,.86,2.26,.34,4.25-1.27,5.99-14.42,15.56-24.18,33.95-31.86,53.48-2.58,6.55-4.19,13.55-2.84,20.76,.76,4.05,3.39,7.01,6.79,8.16,1.05-17.35,10.93-30.23,21.75-42.57,3.13-3.57,6.72-6.74,11.4-8.25,3.16-1.02,6.37-1.36,9.5,.09,2.96,1.37,4.14,4.11,5.09,7.65,1.68-3.31,3.03-6.11,4.54-8.83,.43-.79,1.23-1.77,2-1.9,4.41-.76,8.86-1.29,13.78-1.97-.54,1.16-.89,1.95-1.27,2.72-5.77,11.71-11.55,23.41-17.3,35.13-.66,1.34-1.35,2.7-1.73,4.13-.26,.95,0,2.05,.04,3.08,.99-.23,2.17-.19,2.94-.74,2.03-1.43,3.95-3.04,5.81-4.7,2.73-2.44,5.36-4.98,7.98-7.42-.12-.2,.04-.05,0,.02-4.03,8.95-8.96,17.31-16.5,23.79-1.93,1.66-4.14,3.14-6.45,4.16-6.04,2.68-10.08,.65-13.03-6.36-4.42,5.68-10.11,9.29-17.02,10.99-3.82,.94-7.33,.86-9.4-2.99-2.68,1.71-5.15,3.56-7.86,4.95-3.68,1.88-7.65,2.82-11.83,2.06-5.77-1.05-9.34-5.19-9.61-11.07-.25-5.53,1.05-10.84,3.35-15.73,4.57-9.69,9.57-19.17,14.39-28.74,.39-.78,.82-1.54,1.23-2.31-.24-.16-.49-.33-.73-.49-12.8,16.74-25.59,33.47-38.94,50.93-.69-3.4-1.49-6.15-1.76-8.94-1.22-12.82,.57-25.42,3.24-37.9,1.26-5.91,2.96-11.72,4.61-18.15-.78,1.14-1.37,1.85-1.79,2.64-6.59,12.31-13.03,24.71-19.78,36.94-5.58,10.11-11.36,20.12-17.37,29.97-2.05,3.36-4.93,6.29-7.75,9.1-6.48,6.48-14.34,7.45-22.62,4.47-8.24-2.97-12.45-9.45-13.48-17.95-1.31-10.84,2.88-19.89,9.78-27.85,2.21-2.55,4.86-4.72,7.56-7.32Zm74.05,10.04c.23,.04,.47,.07,.7,.11,16.06-20.21,32.12-40.41,47.81-60.16-6.75,1.4-13.8,3.28-20.97,4.25-7.22,.98-14.56,1.05-22.05,1.53-3.34,17.9-7.8,35.76-5.49,54.27Zm77.81-20.03c-.13-.05-.26-.09-.4-.14-.03-.66-.02-1.33-.1-1.99-.54-4.21-2.6-5.65-6.53-4.04-2.23,.92-4.49,2.34-6.11,4.12-6.32,6.94-11.28,14.81-14.57,23.62-.88,2.36-1.28,5.01-1.3,7.54-.02,3.52,2.93,5.77,6.3,4.74,2.14-.65,4.42-1.83,5.9-3.44,2.61-2.85,4.92-6.06,6.89-9.39,2.87-4.86,5.41-9.92,7.91-14.98,.93-1.88,1.34-4.02,1.99-6.04Z"/>
      <path class="cls-1" d="M266.91,180.27c.35,2.28,.5,4.35,1,6.33,2.41,9.48,10.88,13.13,18.81,7.45,4.99-3.58,9.45-8.19,13.32-13,5.67-7.05,10.65-14.67,15.84-22.1,7.56-10.83,14.58-22.07,24.45-32.11-8.94,3.11-17.37,1.44-25.76,1.17-4.66-.15-8.79,1.09-11.14,5.6-2.52,4.84-.26,9.74,5.04,11.03,.94,.23,1.92,.31,2.9,.46-2.72,6.06-10.86,9.87-16.9,8.01-5.27-1.62-8.36-7.23-7.38-13.42,1.45-9.21,8.49-15.79,17.83-16.85,5.54-.63,10.94-.07,16.34,1.14,8.15,1.83,16.19,1.3,24.09-1.41,.69-.24,1.39-.45,2.21-.54-5.45,4.86-9.5,10.77-13.02,17.02-3.54,6.29-6.8,12.74-10.31,19.36,12.8-1.18,30.26-20.91,35.35-39.41,3.59,.41,6.02,3.23,6.22,7.43,.26,5.6-1.91,10.44-5.16,14.78-5.59,7.47-12.98,12.55-21.76,15.65-.94,.33-1.87,.66-3.16,1.12,5.09,2.95,7.57,7.33,8.35,12.76,.75,5.24-.03,10.29-1.97,15.16-1.23,3.09-2.84,6.04-3.83,9.19-.67,2.16-.95,4.6-.72,6.84,.38,3.61,2.92,5.1,6.28,3.72,2.47-1.02,4.68-2.68,7.05-4.08-.28,3.76-1.81,7.2-3.98,10.39-4.24,6.24-9.88,10.32-17.59,10.89-7.09,.52-11.76-3.61-12.46-10.68-.5-5.02,.73-9.74,2.35-14.4,2.48-7.14,5.22-14.2,7.29-21.45,.88-3.08,.68-6.6,.32-9.85-.24-2.16-1.65-4.19-2.54-6.28-.26,.04-.51,.07-.77,.11-.4,.86-.79,1.73-1.19,2.58-6.82,14.52-13.51,29.1-20.51,43.53-3.35,6.91-7.76,13.18-13.37,18.54-4.71,4.5-10.26,6.31-16.68,5.45-6.56-.88-11.16-4.5-14-10.37-5.51-11.43-2.16-29.29,7.06-38.02,.6-.56,1.26-1.06,2.08-1.75Z"/>
      <path class="cls-1" d="M266.97,111.1c.54-1.17,.85-1.92,1.23-2.64,17.39-33.7,35.99-66.74,55.36-99.33,2.62-4.41,6.19-7.57,11.28-8.78,7.53-1.78,13.08,3.52,11.24,11.01-.7,2.86-2,5.65-3.48,8.21-5.63,9.75-13.75,17.36-22.42,24.24-6.27,4.98-10.68,11-13.89,18.77,.64-.57,.95-.82,1.23-1.11,.29-.3,.51-.66,.79-.96,3.93-4.17,7.78-8.42,11.86-12.44,1.38-1.36,3.25-2.36,5.07-3.09,4.25-1.71,8.44,.87,8.46,5.43,.01,2.92-.6,5.98-1.59,8.74-1.55,4.28-3.74,8.33-5.53,12.53-1.59,3.74-3.13,7.5-4.38,11.36-.36,1.13-.02,3.4,.68,3.75,1.04,.51,3.07,.23,4.02-.53,2.34-1.9,4.31-4.27,6.29-6.32-.09,.37-.21,1.12-.46,1.83-2.7,7.52-6.93,14.05-13.18,19.04-1.98,1.58-4.64,2.62-7.14,3.15-4.06,.85-6.89-1.33-6.67-5.53,.2-3.81,1.15-7.73,2.55-11.3,3.2-8.2,6.89-16.2,10.34-24.3,.42-.98,.79-2.05,.85-3.1,.05-.81-.17-1.99-.72-2.39-.54-.39-1.91-.35-2.46,.09-2.15,1.68-4.36,3.38-6.11,5.45-6.69,7.9-12.36,16.51-17.23,25.63-3.28,6.16-6.37,12.43-9.6,18.61-.38,.73-1.08,1.7-1.76,1.82-4.73,.82-9.49,1.44-14.66,2.19Zm49.36-69.5c.16,.14,.31,.29,.47,.43,9.01-7.21,17.82-14.62,23.61-24.91,.95-1.7,1.54-3.69,1.88-5.62,.33-1.85-.08-3.84-2.17-4.53-2.01-.66-3.27,.73-4.23,2.29-6.41,10.49-12.8,20.98-19.19,31.47-.16,.26-.24,.57-.36,.85Z"/>
      <path class="cls-1" d="M380.75,46.61c1.56-3.06,3.04-5.81,4.37-8.62,.63-1.33,1.38-2,2.94-2.17,4.19-.45,8.35-1.16,12.97-1.83-.54,1.18-.89,1.98-1.27,2.76-5.78,11.7-11.57,23.38-17.31,35.1-.84,1.71-1.49,3.52-2.03,5.34-.17,.58,.13,1.52,.56,1.96,.27,.27,1.33,.1,1.79-.22,2.09-1.49,4.19-3.01,6.11-4.7,2.99-2.64,5.85-5.43,8.76-8.15-.19-.21-.02-.09-.04-.04-4.28,9.48-9.49,18.33-17.72,24.99-2.71,2.19-5.59,4.26-9.36,4.03-5.48-.33-7.22-1.76-8.86-7.29-.98,1.11-1.82,2.19-2.79,3.13-4.47,4.35-9.78,7.14-15.9,8.29-4.28,.81-7.02-.76-8.53-4.97-1.98-5.52-1.36-11.09,.69-16.36,5.1-13.15,12.85-24.59,23.3-34.08,2.16-1.96,4.84-3.62,7.57-4.65,7.39-2.78,12.11-.35,14.77,7.49Zm-3.13,3.51c-.14-.05-.28-.1-.41-.15-.07-.66-.13-1.32-.22-1.98-.55-3.83-2.48-5.26-6.06-3.81-2.39,.97-4.81,2.46-6.54,4.33-6.25,6.78-11.04,14.56-14.39,23.16-.86,2.21-1.4,4.65-1.53,7.02-.25,4.51,3.56,7.07,7.73,5.3,1.58-.67,3.28-1.55,4.34-2.82,2.6-3.1,5.14-6.32,7.21-9.78,2.81-4.7,5.27-9.62,7.66-14.55,1.02-2.1,1.49-4.47,2.22-6.72Z"/>
      <path class="cls-1" d="M418.9,153.24c-.55,1.14-.93,1.95-1.33,2.75-6.03,11.95-12.07,23.89-18.09,35.84-.63,1.26-1.28,2.54-1.69,3.88-.24,.78,0,1.69,.01,2.55,.87-.05,1.93,.21,2.59-.19,2.62-1.58,5.11-3.36,7.44-4.93-1.89,9.03-10.06,18.99-17.82,21.27-1.8,.53-3.75,.79-5.63,.8-2.98,.01-4.93-1.8-4.99-4.77-.05-2.7,.39-5.4,.6-7.81-3.2,3.71-6.53,7.72-10.03,11.59-2.72,3-6.2,4.34-10.29,4.12-5.71-.32-9.44-4.64-8.34-10.28,.55-2.8,1.66-5.58,3.01-8.1,5.74-10.69,11.67-21.28,17.5-31.92,1.39-2.53,2.26-5.11-.53-7.56,3.07-1.45,5.95-1.72,8.69,.11,3.14,2.09,3.88,5.37,3.47,8.81-.25,2.1-1.03,4.2-1.9,6.15-2.72,6.06-5.65,12.04-8.39,18.09-.81,1.8-1.41,3.74-1.81,5.67-.17,.82,.17,2.2,.76,2.6,.61,.42,2,.27,2.73-.17,4.2-2.51,7.82-5.74,10.17-10.07,3.57-6.57,6.91-13.27,10.35-19.91,2.53-4.87,4.99-9.77,7.65-14.57,.51-.92,1.7-1.84,2.7-2.02,4.24-.78,8.52-1.27,13.16-1.92Z"/>
      <path class="cls-1" d="M404.06,212.8c.55-1.22,.91-2.05,1.3-2.86,6.06-12.58,12.13-25.15,18.2-37.73,.18-.37,.37-.75,.55-1.12,2.4-4.98,3.67-9.91-1.27-14.99,3.24-1.73,6-3.6,9.04-4.73,4.04-1.5,6.63,.45,7,4.75,.11,1.32,.02,2.65,.02,4.62,.76-1.06,1.24-1.73,1.71-2.4,3.81-5.46,8.28-10.05,15.22-11.2,3.92-.65,7.59,.17,10.19,3.31,2.52,3.05,2.31,6.63,.8,10.14-2.76,6.41-5.63,12.78-8.32,19.22-.89,2.13-1.53,4.4-1.95,6.67-.18,.98,.16,2.64,.84,3.05,.73,.44,2.39,.14,3.18-.46,2.09-1.59,3.93-3.51,6.35-5.74-4.2,7.62-7.97,14.82-14.09,20.36-3.63,3.28-8.05,3.76-12.64,2.35-3.08-.94-4.82-3.44-4.86-6.79-.05-4.57,1.8-8.6,3.87-12.5,4.68-8.81,9.52-17.53,14.27-26.31,.97-1.79,2.54-3.74,.57-5.65-1.97-1.91-4.48-1.07-6.2,.27-2.31,1.8-4.64,3.95-6.05,6.46-3.62,6.43-6.9,13.07-10.01,19.78-4.2,9.04-8.13,18.21-12.11,27.36-.62,1.43-1.35,2.24-3,2.42-4.04,.45-8.05,1.09-12.59,1.73Z"/>
      <path class="cls-1" d="M209.98,64.85c-3.13,.41-5.83,.77-8.82,1.16,.93-2.16,1.93-3.68,4.33-3.62,4.62,.12,7.25-1.99,9.32-6.33,6.2-12.97,12.98-25.65,19.55-38.44,.56-1.09,1.17-2.16,1.84-3.4,4.51,2.81,3.18,9.45,8.38,11.66-5.65,10.93-11.27,21.82-17.18,33.27,4.04-.5,7.43-.91,11.12-1.37-.98,2.19-2.03,3.61-4.32,3.6-.82,0-1.65,.39-2.46,.33-4.77-.33-7.08,2.21-8.95,6.37-3.52,7.79-7.73,15.27-11.48,22.96-1.41,2.89-2.61,5.95-3.38,9.06-.98,3.96,.95,5.55,4.84,4.22,4.92-1.69,8.81-4.93,12.3-8.7,.5-.54,1-1.08,1.62-1.74-2.75,11.8-16.15,24.89-27.1,26.65-6.34,1.02-10.14-2.18-10.24-8.58-.09-5.96,2.34-11.18,4.92-16.31,4.74-9.43,9.63-18.78,14.45-28.17,.38-.73,.71-1.49,1.24-2.62Z"/>
      <path class="cls-1" d="M270.57,83.94c-5.35,11.71-12.31,21.99-23.73,28.44-3.24,1.83-6.73,2.78-10.51,2.61-4.14-.18-6.86-2.26-8.26-6.08-1.41-3.85-1.61-7.84-.6-11.79,3.86-15.05,10.98-28.13,23.43-37.86,3.72-2.91,7.87-4.93,12.61-5.6,3.63-.52,5.58,.66,6.54,4.11,1.53,5.48-1.88,15.27-6.47,18.46-1.51,1.05-3.27,1.83-4.74,.23-1.6-1.73-.59-3.42,.82-4.79,1.43-1.39,3.2-2.5,4.36-4.07,1.3-1.75,2.4-3.8,2.99-5.89,.64-2.24-.97-3.77-3.11-2.9-2.64,1.06-5.48,2.31-7.42,4.27-7.08,7.16-10.2,16.17-11.07,26.06-.02,.25,0,.5,0,.75,.15,7.32,4.83,10.16,11.41,6.86,4.95-2.48,8.65-6.42,12.04-10.67,.57-.71,1.12-1.43,1.68-2.14Z"/>
    </g>
  </g>
</svg>