<?xml version="1.0" encoding="UTF-8"?>
<svg id="Layer_2" data-name="Layer 2" xmlns="http://www.w3.org/2000/svg" xmlns:xlink="http://www.w3.org/1999/xlink" viewBox="0 0 539.57 452.88">
  <defs>
    <style>
      .cls-1 {
        fill: url(#linear-gradient);
      }
    </style>
    <linearGradient id="linear-gradient" x1="197.42" y1="-12.69" x2="324.56" y2="395.97" gradientTransform="translate(5.54 -23.47) rotate(2.24) scale(1 1.19)" gradientUnits="userSpaceOnUse">
      <stop offset="0" stop-color="#62812d"/>
      <stop offset=".6" stop-color="#395422"/>
    </linearGradient>
  </defs>
  <g id="Layer_1-2" data-name="Layer 1">
    <path class="cls-1" d="M71.66,361.59c-1.68,8.49-3.02,19.35-2.59,31.89,.95,27.94,10.16,48.71,15.86,59.4-14.4-10.78-49.71-40.48-70.26-97.12C-11.05,284.9,3.92,220.34,8.52,202.77c19.83,9.99,47.76,22.32,82.23,32,67.87,19.07,121.62,16.77,162.17,14.69,64.8-3.32,112.48-5.77,168.25-37.38,30.31-17.19,52.83-37.22,67.32-51.76-5.46,1.96-13.47,4.77-23.2,7.89-114.15,36.66-206.49,34.28-226.83,33.53-87.25-3.22-160.13-24.85-213.6-46.73,4.31-8.93,11.04-21.78,20.59-35.99C103.15,33.22,188.09,10.35,218.9,4.24c15.56-3.08,94.39-17.17,179.18,31.79,29.88,17.25,89.64,51.75,121.38,132.7,8.17,20.82,29.08,76.3,15.81,146.98-14.34,76.35-58.98,119.29-71.75,130.76,2.63-6,6.23-15.01,9.46-26.37,4.23-14.9,20.41-71.82-2.96-115.96-3.87-7.32-8.11-12.91-11.72-17.03-2.39,6.67-6.12,15.85-11.78,25.93-19.17,34.17-44.41,50.3-54.03,56.27-27.7,17.2-53.33,20.18-67.45,20.56,5.68-6.72,15.2-19.73,21.19-39.36,7.26-23.82,5.39-44.45,3.99-54.03-10.01,8.36-24.4,19.39-42.64,30.13-50.7,29.83-95.02,36.15-120.3,39.49-27.76,3.66-67.96,5.5-115.62-4.51Z"/>
  </g>
</svg>